HIERARCHY
ROOT Hips
{
	OFFSET 0.000000 0.000000 0.000000
	CHANNELS 6 Xposition Yposition Zposition Zrotation Yrotation Xrotation 
	JOINT LHipJoint
	{
		OFFSET 0.000000 0.000000 0.000000
		CHANNELS 3 Zrotation Yrotation Xrotation
		JOINT LeftUpLeg
		{
			OFFSET 1.363060 -1.794630 0.839290
			CHANNELS 3 Zrotation Yrotation Xrotation
			JOINT LeftLeg
			{
				OFFSET 2.448110 -6.726130 0.000000
				CHANNELS 3 Zrotation Yrotation Xrotation
				JOINT LeftFoot
				{
					OFFSET 2.562200 -7.039590 0.000000
					CHANNELS 3 Zrotation Yrotation Xrotation
					JOINT LeftToeBase
					{
						OFFSET 0.157640 -0.433110 2.322550
						CHANNELS 3 Zrotation Yrotation Xrotation
						End Site
						{
							OFFSET 0.000000 0.000000 0.000000
						}
					}
				}
			}
		}
	}
	JOINT RHipJoint
	{
		OFFSET 0.000000 0.000000 0.000000
		CHANNELS 3 Zrotation Yrotation Xrotation
		JOINT RightUpLeg
		{
			OFFSET -1.305520 -1.794630 0.839290
			CHANNELS 3 Zrotation Yrotation Xrotation
			JOINT RightLeg
			{
				OFFSET -2.542530 -6.985550 0.000000
				CHANNELS 3 Zrotation Yrotation Xrotation
				JOINT RightFoot
				{
					OFFSET -2.568260 -7.056230 0.000000
					CHANNELS 3 Zrotation Yrotation Xrotation
					JOINT RightToeBase
					{
						OFFSET -0.164730 -0.452590 2.363150
						CHANNELS 3 Zrotation Yrotation Xrotation
						End Site
						{
							OFFSET 0.000000 0.000000 0.000000
						}
					}
				}
			}
		}
	}
	JOINT LowerBack
	{
		OFFSET 0.000000 0.000000 0.000000
		CHANNELS 3 Zrotation Yrotation Xrotation
		JOINT Spine
		{
			OFFSET 0.028270 2.035590 -0.193380
			CHANNELS 3 Zrotation Yrotation Xrotation
			JOINT Spine1
			{
				OFFSET 0.056720 2.048850 -0.042750
				CHANNELS 3 Zrotation Yrotation Xrotation
				JOINT Neck
				{
					OFFSET 0.000000 0.000000 0.000000
					CHANNELS 3 Zrotation Yrotation Xrotation
					JOINT Neck1
					{
						OFFSET -0.054170 1.746240 0.172020
						CHANNELS 3 Zrotation Yrotation Xrotation
						JOINT Head
						{
							OFFSET 0.104070 1.761360 -0.123970
							CHANNELS 3 Zrotation Yrotation Xrotation
							End Site
							{
								OFFSET 0.000000 0.000000 0.000000
							}
						}
					}
				}
				JOINT LeftShoulder
				{
					OFFSET 0.000000 0.000000 0.000000
					CHANNELS 3 Zrotation Yrotation Xrotation
					JOINT LeftArm
					{
						OFFSET 3.362410 1.200890 -0.311210
						CHANNELS 3 Zrotation Yrotation Xrotation
						JOINT LeftForeArm
						{
							OFFSET 4.983000 -0.000000 -0.000000
							CHANNELS 3 Zrotation Yrotation Xrotation
							JOINT LeftHand
							{
								OFFSET 3.483560 -0.000000 -0.000000
								CHANNELS 3 Zrotation Yrotation Xrotation
								JOINT LeftFingerBase
								{
									OFFSET 0.000000 0.000000 0.000000
									CHANNELS 3 Zrotation Yrotation Xrotation
									JOINT LeftHandIndex1
									{
										OFFSET 0.715260 -0.000000 -0.000000
										CHANNELS 3 Zrotation Yrotation Xrotation
										End Site
										{
											OFFSET 0.000000 0.000000 0.000000
										}
									}
								}
								JOINT LThumb
								{
									OFFSET 0.000000 0.000000 0.000000
									CHANNELS 3 Zrotation Yrotation Xrotation
									End Site
									{
										OFFSET 0.000000 0.000000 0.000000
									}
								}
							}
						}
					}
				}
				JOINT RightShoulder
				{
					OFFSET 0.000000 0.000000 0.000000
					CHANNELS 3 Zrotation Yrotation Xrotation
					JOINT RightArm
					{
						OFFSET -3.136600 1.374050 -0.404650
						CHANNELS 3 Zrotation Yrotation Xrotation
						JOINT RightForeArm
						{
							OFFSET -5.241900 -0.000000 -0.000000
							CHANNELS 3 Zrotation Yrotation Xrotation
							JOINT RightHand
							{
								OFFSET -3.444170 -0.000000 -0.000000
								CHANNELS 3 Zrotation Yrotation Xrotation
								JOINT RightFingerBase
								{
									OFFSET 0.000000 0.000000 0.000000
									CHANNELS 3 Zrotation Yrotation Xrotation
									JOINT RightHandIndex1
									{
										OFFSET -0.622530 -0.000000 -0.000000
										CHANNELS 3 Zrotation Yrotation Xrotation
										End Site
										{
											OFFSET 0.000000 0.000000 0.000000
										}
									}
								}
								JOINT RThumb
								{
									OFFSET 0.000000 0.000000 0.000000
									CHANNELS 3 Zrotation Yrotation Xrotation
									End Site
									{
										OFFSET 0.000000 0.000000 0.000000
									}
								}
							}
						}
					}
				}
			}
		}
	}
}
MOTION
Frames: 11
Frame Time: 0.008333
0.309817 16.521820 -2.215555 1.299017 4.894157 6.906687 3.168905 3.860150 2.669997 -19.621509 -11.298727 -34.703834 6.297922 14.395017 47.329726 1.675542 -11.223235 -9.644740 0.418600 -4.152700 -11.506600 -4.876272 -4.966839 3.459244 17.837022 9.728430 -35.733243 -7.476094 -15.170261 50.980421 -2.373642 2.075811 -26.402034 -1.103100 6.673300 -18.751100 -1.767069 1.801474 17.985556 0.268844 1.389756 26.826599 5.314125 0.986936 -2.763047 -13.219243 -12.411515 -5.910150 18.844146 -12.295255 -7.130161 10.012900 -6.101100 3.002800 -4.796976 -6.753034 1.782716 5.709164 -1.374149 -34.539250 108.090456 -54.735041 -72.353070 -0.280739 1.856365 -33.311265 10.330971 25.997461 3.963700 -7.125000 0.000000 0.000000 -20.586500 53.410300 -4.404700 4.242958 8.827442 3.176436 -9.731602 9.701321 -36.740666 -114.020543 52.024131 -71.551695 -2.631606 -0.299497 6.878933 -41.316882 8.634596 -7.856400 7.125000 0.000000 0.000000 -8.196500 -17.439700 -5.419200 
0.329874 16.476819 -2.212602 1.562068 5.413929 6.590984 3.218523 3.852959 2.668421 -20.072139 -11.514604 -34.624507 6.487795 14.516636 47.976598 1.709512 -11.530867 -9.901554 0.445400 -4.281900 -11.871100 -4.849005 -4.978804 3.465651 17.386684 9.288631 -35.971078 -7.726571 -15.417686 51.934633 -2.463601 2.059116 -27.045722 -1.174200 6.878000 -19.354400 -2.249600 2.037916 18.213881 1.021752 1.495810 26.563298 5.779787 1.127872 -3.217702 -12.800758 -12.432155 -5.253539 18.569153 -12.367257 -7.027280 9.849100 -6.170200 2.893000 -4.824885 -6.647547 1.690339 6.550604 -0.195529 -34.173019 107.720343 -54.866902 -71.928295 -0.331737 1.871175 -32.446405 9.847923 26.325751 3.825600 -7.125000 0.000000 0.000000 -21.146700 53.587800 -4.627100 4.174291 8.846688 3.150319 -9.477764 10.281419 -35.694399 -113.272133 52.286843 -70.682417 -2.561254 -0.570440 4.786956 -39.927026 6.889029 -6.280900 7.125000 0.000000 0.000000 -7.525200 -19.654000 -4.595200 
0.347183 16.429883 -2.210973 1.644039 5.917605 6.292679 3.295707 3.831424 2.653226 -20.318188 -11.714104 -34.649657 6.695572 14.652653 48.677522 1.732780 -11.963596 -9.980575 0.388300 -4.001300 -11.080500 -4.813656 -5.002272 3.486288 17.112922 8.939116 -36.287008 -7.993859 -15.671316 52.936139 -2.548452 2.098361 -27.604251 -1.154000 6.820600 -19.184900 -1.344722 1.813892 17.859960 2.194612 1.169372 27.734879 5.944629 1.060411 -1.578118 -16.033083 -12.921058 -8.341266 19.322714 -12.974100 -6.738659 10.534900 -6.286100 3.991000 -4.814675 -6.993815 1.809005 6.024744 1.016162 -36.973146 106.983706 -54.920118 -71.056442 -0.390292 1.812375 -30.883970 8.622536 26.121746 3.333500 -7.125000 0.000000 0.000000 -22.082200 53.194000 -4.629500 4.100793 8.764213 2.919533 -11.890161 10.925062 -37.525501 -112.101810 53.060764 -69.319440 -2.480970 -0.872152 2.509931 -38.798135 5.449578 -5.129400 7.125000 0.000000 0.000000 -6.941400 -21.333300 -3.969200 
0.362658 16.374395 -2.210057 1.809579 6.315076 5.937141 3.360229 3.823001 2.648703 -20.657564 -11.840950 -34.650965 6.924858 14.804486 49.453899 1.761657 -12.383524 -10.151716 0.352700 -3.815900 -10.559200 -4.789807 -5.017043 3.495075 16.762143 8.556663 -36.513237 -8.268505 -15.915948 53.942891 -2.625789 2.153075 -28.095800 -1.103900 6.675800 -18.758300 -1.639422 2.015408 17.784436 3.102080 1.237208 27.740302 6.423975 1.180577 -1.551127 -16.255780 -12.913371 -7.780757 19.153211 -12.968382 -6.932604 10.512700 -6.315500 3.831700 -4.834072 -6.939980 1.739146 6.428097 2.055741 -37.209310 106.340144 -55.064918 -70.323809 -0.445532 1.743419 -29.949718 7.614659 25.728736 2.914900 -7.125000 0.000000 0.000000 -22.725100 52.688800 -4.486600 4.034098 8.792615 2.866218 -12.183686 11.379929 -36.886147 -111.333373 53.382679 -68.469051 -2.390517 -1.152024 -0.282472 -38.002347 3.836684 -3.941000 7.125000 0.000000 0.000000 -6.577600 -23.213200 -3.474700 
0.376607 16.314427 -2.208631 1.987951 6.706902 5.552216 3.426914 3.810365 2.639297 -21.012436 -11.956592 -34.614395 7.163943 14.957227 50.260611 1.789953 -12.745654 -10.366897 0.321400 -3.643800 -10.076700 -4.762556 -5.037919 3.499353 16.414030 8.146395 -36.659640 -8.542223 -16.151953 54.935934 -2.707032 2.154365 -28.643157 -1.099600 6.663200 -18.721400 -2.114609 2.204885 17.720300 4.097440 1.250149 27.746114 7.067141 1.276043 -1.462042 -16.772861 -12.845037 -7.480300 19.060250 -12.891195 -6.878110 10.578600 -6.293600 3.818000 -4.860627 -6.908220 1.678146 6.680196 3.170201 -37.518322 105.888213 -55.166293 -69.788226 -0.511334 1.669689 -29.473529 6.675911 25.324725 2.534600 -7.125000 0.000000 0.000000 -23.297900 52.196200 -4.319700 3.971810 8.819481 2.788829 -12.648501 12.029817 -36.325973 -110.528360 53.761848 -67.589623 -2.255117 -1.421972 -2.923620 -36.820524 2.085681 -2.668200 7.125000 0.000000 0.000000 -5.930700 -25.265100 -2.846600 
0.390250 16.256495 -2.206290 2.058888 7.075756 5.025782 3.491353 3.802959 2.629648 -21.259105 -12.000433 -34.450218 7.408311 15.105633 51.079099 1.819345 -13.045357 -10.613909 0.274100 -3.367800 -9.304300 -4.733503 -5.065499 3.491619 16.216107 7.676627 -36.592193 -8.810306 -16.357861 55.882274 -2.794819 2.168112 -29.201438 -1.114400 6.706500 -18.848600 -2.577038 2.378761 17.779032 5.151752 1.238898 27.782949 7.760128 1.361201 -1.324612 -17.340522 -12.809719 -7.414776 18.891845 -12.875116 -6.728230 10.610800 -6.290200 3.889600 -4.893493 -6.898376 1.630645 6.765812 4.248749 -37.931466 105.570277 -55.230074 -69.398050 -0.615618 1.623999 -29.028320 5.600116 25.418834 2.157600 -7.125000 0.000000 0.000000 -24.233900 52.105100 -4.454400 3.908523 8.839410 2.709151 -13.160788 12.729948 -35.771722 -109.752299 54.139664 -66.770293 -2.109040 -1.666064 -5.573889 -35.774568 0.439282 -1.555300 7.125000 0.000000 0.000000 -5.326600 -27.154200 -2.317800 
0.400838 16.200193 -2.203744 2.165875 7.359836 4.427892 3.544923 3.801782 2.624171 -21.540842 -11.881729 -34.228961 7.660106 15.250554 51.910053 1.856777 -13.426651 -10.883184 0.246600 -3.195500 -8.823500 -4.710351 -5.092318 3.477243 15.994932 7.182365 -36.441730 -9.071120 -16.543580 56.779660 -2.887299 2.291110 -29.694045 -1.166000 6.854600 -19.285200 -3.089248 2.585401 17.853386 6.068145 1.286183 27.870915 8.444134 1.454408 -1.129298 -17.844102 -12.810719 -7.295968 18.848503 -12.883489 -6.702365 10.681700 -6.299100 3.919200 -4.917115 -6.882286 1.578881 6.929392 5.188418 -38.368557 105.289728 -55.302423 -69.057903 -0.711532 1.611613 -28.656761 4.812999 25.750459 1.902100 -7.125000 0.000000 0.000000 -25.045000 52.253500 -4.714100 3.843289 8.871107 2.663048 -13.496996 13.411275 -35.335304 -109.180812 54.430673 -66.180547 -1.927582 -1.882970 -8.352228 -34.480970 -1.120462 -0.551100 7.125000 0.000000 0.000000 -4.497000 -28.937200 -1.764600 
0.408169 16.143992 -2.203235 2.279994 7.604368 3.862812 3.595263 3.802877 2.622961 -21.797781 -11.790875 -34.050397 7.912311 15.392786 52.735653 1.883047 -13.872385 -11.043443 0.199700 -2.877300 -7.937300 -4.693528 -5.116554 3.463227 15.789587 6.709600 -36.317312 -9.313747 -16.711647 57.608439 -2.961718 2.387646 -30.093618 -1.219000 7.003300 -19.725000 -3.542931 2.800962 18.043706 6.844971 1.375303 27.880454 9.021701 1.563854 -1.109545 -18.367007 -12.828269 -7.030692 18.915964 -12.913223 -6.690239 10.802400 -6.327800 3.932100 -4.936985 -6.859211 1.520673 7.218288 5.928090 -38.754797 105.085807 -55.377836 -68.812082 -0.783290 1.596523 -28.502216 4.257730 25.938535 1.717000 -7.125000 0.000000 0.000000 -25.591600 52.320600 -4.872300 3.786576 8.895605 2.651652 -13.613669 14.035243 -34.868584 -108.923442 54.590833 -65.942426 -1.712072 -2.061691 -11.665061 -32.941619 -2.354414 0.193600 7.125000 0.000000 0.000000 -3.418100 -30.347400 -1.224700 
0.415499 16.085551 -2.200893 2.229667 7.833579 3.294611 3.642953 3.810740 2.627831 -21.861864 -11.743932 -33.896523 8.155583 15.535763 53.534297 1.914181 -14.190741 -11.294593 0.191100 -2.815400 -7.765200 -4.679905 -5.137721 3.444155 15.759501 6.267443 -36.070350 -9.529315 -16.837576 58.321287 -3.046042 2.537187 -30.492997 -1.249700 7.087700 -19.975500 -3.720807 2.953479 18.293320 7.491561 1.445925 27.856527 9.379195 1.660501 -1.183064 -18.739990 -12.829319 -6.728262 19.014778 -12.917805 -6.735856 10.911500 -6.345100 3.899700 -4.947968 -6.833519 1.449844 7.676517 6.554593 -39.111709 104.893639 -55.470565 -68.593235 -0.825957 1.577991 -28.654925 4.032192 25.932520 1.640800 -7.125000 0.000000 0.000000 -25.757000 52.279600 -4.880500 3.733507 8.911633 2.673864 -13.456271 14.580441 -34.175081 -108.859110 54.634047 -65.955342 -1.526767 -2.222619 -15.017185 -32.071443 -3.592578 0.877400 7.125000 0.000000 0.000000 -2.797700 -31.723800 -0.909500 
0.422015 16.030776 -2.196108 2.242998 7.985268 2.704892 3.670316 3.829445 2.642954 -21.985184 -11.594159 -33.672587 8.370907 15.654012 54.235410 1.947279 -14.450972 -11.565964 0.179000 -2.725500 -7.515500 -4.675202 -5.156916 3.418076 15.705556 5.830934 -35.705698 -9.712363 -16.930495 58.923344 -3.093680 2.525760 -30.786542 -1.353000 7.363500 -20.796800 -3.774168 3.114715 18.449940 7.829947 1.593077 27.922935 9.543889 1.761654 -1.153057 -18.801251 -12.860737 -6.519739 19.166476 -12.958620 -6.750569 10.987200 -6.372100 3.885100 -4.940391 -6.810279 1.373492 8.413433 6.943555 -39.530800 104.783464 -55.577772 -68.484650 -0.847657 1.588066 -29.072045 4.222574 26.065244 1.727200 -7.125000 0.000000 0.000000 -25.644700 52.413800 -4.944400 3.676847 8.930323 2.731455 -12.942637 14.926385 -33.454432 -108.859556 54.587714 -66.038986 -1.369964 -2.384519 -18.251980 -31.819301 -4.886870 1.570900 7.125000 0.000000 0.000000 -2.620000 -33.132400 -0.762700 
0.427310 15.992901 -2.187556 2.269772 8.099242 2.108282 3.679135 3.859013 2.667730 -22.111378 -11.382388 -33.329075 8.554102 15.740424 54.815725 1.980682 -14.755203 -11.795605 0.154900 -2.536400 -6.990500 -4.674872 -5.172444 3.386378 15.662886 5.360319 -35.270583 -9.863089 -16.991247 59.401904 -3.143910 2.592417 -31.028965 -1.431500 7.565100 -21.400700 -3.671761 3.238642 18.521172 7.892211 1.758468 28.050195 9.499664 1.844397 -1.065013 -18.579115 -12.939538 -6.147772 19.326204 -13.056295 -6.920653 11.015300 -6.434600 3.781800 -4.914542 -6.776533 1.290809 9.339318 7.191909 -39.933626 104.883185 -55.668300 -68.624150 -0.842734 1.630885 -29.747097 4.863976 26.354955 1.992300 -7.125000 0.000000 0.000000 -25.238000 52.745900 -5.070400 3.621569 8.948849 2.817480 -11.980233 15.196007 -32.751809 -108.912994 54.464269 -66.148553 -1.241336 -2.506689 -21.199755 -31.708923 -5.772111 2.042900 7.125000 0.000000 0.000000 -2.525500 -34.098600 -0.676000 
